<?xml version="1.0" standalone="no"?>
<!DOCTYPE svg PUBLIC "-//W3C//DTD SVG 20010904//EN"
 "http://www.w3.org/TR/2001/REC-SVG-20010904/DTD/svg10.dtd">
<svg version="1.0" xmlns="http://www.w3.org/2000/svg"
 width="748.000000pt" height="748.000000pt" viewBox="0 0 748.000000 748.000000"
 preserveAspectRatio="xMidYMid meet">
<metadata>
Created by potrace 1.14, written by Peter Selinger 2001-2017
</metadata>
<g transform="translate(0.000000,748.000000) scale(0.100000,-0.100000)"
fill="#000000" stroke="none">
<path d="M3468 7465 c-2 -1 -37 -5 -78 -9 -85 -7 -134 -13 -170 -21 -14 -3
-43 -8 -65 -11 -22 -4 -74 -15 -115 -25 -387 -99 -703 -258 -1022 -517 -86
-70 -246 -235 -353 -363 -78 -92 -213 -305 -278 -435 -98 -195 -187 -458 -221
-649 -3 -16 -8 -41 -11 -54 -2 -13 -7 -46 -10 -75 -3 -28 -10 -85 -15 -126 -8
-76 -11 -2776 -3 -2862 l5 -47 96 49 c130 64 287 131 267 112 -5 -5 -30 -17
-55 -26 -25 -10 -98 -43 -163 -74 l-119 -56 6 -61 c13 -141 54 -322 113 -495
47 -141 59 -163 81 -150 31 18 115 51 119 46 2 -2 -23 -14 -56 -27 -34 -13
-61 -29 -61 -36 0 -6 33 -76 73 -155 75 -149 169 -301 218 -353 15 -16 55 -64
88 -106 366 -462 940 -797 1531 -893 19 -3 46 -8 60 -10 88 -15 177 -19 430
-21 338 -2 429 5 659 50 361 70 812 288 1083 523 156 135 274 255 323 327 19
28 46 63 60 80 35 40 164 236 204 309 18 32 30 64 27 71 -2 6 10 40 26 76 98
208 169 434 173 554 2 44 6 91 9 105 4 14 9 48 12 75 3 28 8 61 12 75 3 14 7
662 8 1440 2 1453 1 1526 -36 1705 -6 28 -13 66 -16 85 -20 126 -126 423 -210
592 -60 120 -174 304 -240 388 -205 259 -433 466 -693 629 -148 93 -461 234
-581 262 -19 4 -76 19 -126 33 -50 13 -106 26 -125 29 -19 3 -63 10 -99 16
-36 5 -85 13 -110 16 -42 6 -646 15 -652 10z m-1771 -4971 c-3 -3 -12 -4 -19
-1 -8 3 -5 6 6 6 11 1 17 -2 13 -5z m-82 -24 c-27 -12 -43 -12 -25 0 8 5 22 9
30 9 10 0 8 -3 -5 -9z m2845 -310 c-19 -16 -37 -26 -40 -23 -3 2 11 17 30 33
19 16 37 26 40 23 3 -2 -11 -17 -30 -33z m-374 -249 c-6 -9 -46 -22 -46 -15 0
3 10 9 23 14 29 11 29 11 23 1z m-2466 -245 c0 -2 -9 -6 -20 -9 -11 -3 -18 -1
-14 4 5 9 34 13 34 5z m3250 -22 c-58 -26 -199 -118 -241 -156 -14 -13 -52
-45 -85 -72 -32 -27 -63 -54 -69 -60 -46 -50 -190 -156 -277 -204 -82 -46 -86
-39 -5 8 75 44 194 131 242 177 17 16 62 56 100 88 39 32 72 62 75 65 23 33
276 181 305 179 6 0 -15 -11 -45 -25z m-3350 -14 c-8 -5 -19 -10 -25 -10 -5 0
-3 5 5 10 8 5 20 10 25 10 6 0 3 -5 -5 -10z m2600 -514 c0 -2 -9 -6 -20 -9
-11 -3 -18 -1 -14 4 5 9 34 13 34 5z m500 -249 c0 -2 -10 -12 -22 -23 l-23
-19 19 23 c18 21 26 27 26 19z m-50 -41 c0 -2 -8 -10 -17 -17 -16 -13 -17 -12
-4 4 13 16 21 21 21 13z m-70 -59 c0 -2 -15 -16 -32 -33 l-33 -29 29 33 c28
30 36 37 36 29z m-90 -80 c0 -2 -10 -12 -22 -23 l-23 -19 19 23 c18 21 26 27
26 19z m-60 -51 c0 -2 -8 -10 -17 -17 -16 -13 -17 -12 -4 4 13 16 21 21 21 13z
m-40 -30 c0 -2 -8 -10 -17 -17 -16 -13 -17 -12 -4 4 13 16 21 21 21 13z"/>
</g>
</svg>
